<?xml version="1.0" encoding="utf-8"?>
<svg width="153" height="35" viewBox="0 0 33.483 35.595" fill="none" xmlns="http://www.w3.org/2000/svg">
  <g>
    <path fill-rule="evenodd" clip-rule="evenodd" d="M23.3236 15.0813H3.57779L0.735533 29.8548L0.733184 29.8548L0.447644 31.339C-0.0806721 34.0851 3.03577 35.4604 5.38674 33.5186L9.82253 29.8548L20.4814 29.8548C24.6358 29.8548 28.6398 26.5477 29.4247 22.4681C30.2096 18.3885 27.478 15.0813 23.3236 15.0813Z" fill="url(#paint0_linear)" style="stroke: rgb(0, 0, 0); stroke-width: 1.75px; fill-opacity: 0;"/>
    <g>
      <path d="M 11.621 0 C 8.781 0 6.044 2.261 5.508 5.049 L 3.578 15.081 L 23.167 15.081 C 27.408 15.081 31.495 11.705 32.297 7.541 C 33.098 3.376 30.309 0 26.068 0 L 11.621 0 Z" style="transform-box: fill-box; transform-origin: 46.5291% 70.7578%; stroke: rgb(0, 0, 0); paint-order: fill; stroke-miterlimit: 1; stroke-dashoffset: -1px; stroke-width: 1.75px; fill: rgb(0, 0, 0);"/>
      <path d="M 3.578 15.081 L 2.36 21.412 C 2.176 22.37 3.262 22.849 4.082 22.172 L 12.667 15.081 L 12.667 15.081" style="transform-box: fill-box; transform-origin: 141.994% -59.5334%; stroke: rgb(0, 0, 0); paint-order: fill; stroke-miterlimit: 1; stroke-dashoffset: -1px; stroke-width: 1.75px; fill: rgb(0, 0, 0);"/>
    </g>
  </g>
  <defs>
    <linearGradient id="paint0_linear" x1="14.7843" y1="15.0813" x2="13.9077" y2="37.5525" gradientUnits="userSpaceOnUse">
      <stop stop-color="#B547E9"/>
      <stop offset="1" stop-color="#4958F5"/>
    </linearGradient>
  </defs>
</svg>